<svg id="Layer_1" data-name="Layer 1" xmlns="http://www.w3.org/2000/svg" viewBox="0 0 117.2 127.92"><defs><style>.cls-1{fill:#fff;}.cls-2{fill:#ef4538;}.cls-3{fill:#154b9c;}</style></defs><title>Untitled-1</title><path class="cls-1" d="M56.79-.12s46.23,27.54,54.42,45l-5,3.61S148.8,94.67,94,121.25c-43,20.88-71.89-14.88-71.89-14.88l-4.25,2.56s-32.14-31.19,4.37-67.15C36.18,28,55.12,28.52,56.79-.12Z" transform="translate(-4.78 0.12)"/><path class="cls-2" d="M23.68,97l74.13-53.1s16.24,15.6,12.49,28.63c3.64,2.93,6.35,5,6.35,5l-6.77,6.15s-2.71,19.16-26.24,29.57l-3.33,10.2L69.7,116.22S39.82,118.9,23.68,97Z" transform="translate(-4.78 0.12)"/><path class="cls-3" d="M59.08,6.59s39.56,22.49,46.64,38.73L23.06,102.58S1.82,72.22,26.81,44.69C37.5,32.92,56.79,33.8,59.08,6.59Z" transform="translate(-4.78 0.12)"/><polygon class="cls-1" points="74.47 119.02 55 96.5 25.42 99.77 40.82 74.3 28.57 47.17 57.56 53.95 79.57 33.92 82.08 63.58 107.93 78.33 80.5 89.88 74.47 119.02"/></svg>